<?xml version="1.0" encoding="utf-8"?>
<!-- Generator: Adobe Illustrator 25.0.1, SVG Export Plug-In . SVG Version: 6.00 Build 0)  -->
<svg version="1.1" id="Layer_1" xmlns="http://www.w3.org/2000/svg" xmlns:xlink="http://www.w3.org/1999/xlink" x="0px" y="0px"
	 viewBox="0 0 192.8 70.9" style="enable-background:new 0 0 192.8 70.9;" xml:space="preserve">
<style type="text/css">
	.st0{fill:#4AC7E9;}
	.st1{fill:#FFFFFF;}
</style>
<g>
	<g>
		<path class="st0" d="M33.2,68.8l-2.6-9.3h-0.1c0.1,1.6,0.2,2.8,0.2,3.7v5.6h-3.1V55.9h4.6l2.7,9.1H35l2.6-9.1h4.6v12.8h-3.2v-5.6
			c0-0.3,0-0.6,0-1s0-1.2,0.1-2.6h-0.1l-2.6,9.2H33.2z"/>
		<path class="st0" d="M50.9,68.8h-7.6V55.9h7.6v2.8h-4.2v2h3.8v2.8h-3.8V66h4.2V68.8z"/>
		<path class="st0" d="M62.6,62.1c0,2.1-0.6,3.8-1.8,5c-1.2,1.2-2.8,1.7-5,1.7h-4.2V55.9h4.4c2.1,0,3.7,0.5,4.8,1.6
			C62,58.6,62.6,60.1,62.6,62.1z M59,62.2c0-1.2-0.2-2.1-0.7-2.6c-0.5-0.6-1.2-0.9-2.1-0.9h-1v7.2h0.8c1.1,0,1.8-0.3,2.3-0.9
			S59,63.5,59,62.2z"/>
		<path class="st0" d="M63.1,68.8V55.9h3.5v12.8H63.1z"/>
		<path class="st0" d="M76.5,68.8l-0.6-2.4h-4.2l-0.7,2.4h-3.8l4.2-12.9h4.6l4.2,12.9H76.5z M75.2,63.5l-0.6-2.1
			c-0.1-0.5-0.3-1.1-0.5-1.8c-0.2-0.7-0.3-1.3-0.4-1.6c-0.1,0.3-0.2,0.8-0.3,1.5c-0.2,0.7-0.5,2-1,4.1H75.2z"/>
		<path class="st0" d="M94.3,68.8l-0.6-2.4h-4.2l-0.7,2.4H85l4.2-12.9h4.6l4.2,12.9H94.3z M92.9,63.5l-0.6-2.1
			c-0.1-0.5-0.3-1.1-0.5-1.8c-0.2-0.7-0.3-1.3-0.4-1.6c-0.1,0.3-0.2,0.8-0.3,1.5c-0.2,0.7-0.5,2-1,4.1H92.9z"/>
		<path class="st0" d="M110.8,68.8h-4.1l-1.2-5.6c-0.1-0.2-0.2-0.7-0.3-1.4s-0.2-1.3-0.3-1.7c0,0.4-0.1,0.9-0.2,1.4
			s-0.2,1.1-0.3,1.6c-0.1,0.5-0.5,2.4-1.3,5.8H99l-3.2-12.8h3.3l1.4,6.4c0.3,1.4,0.5,2.6,0.7,3.4c0.1-0.6,0.2-1.4,0.4-2.4
			c0.2-1,0.4-1.9,0.5-2.5l1.1-4.9h3.2l1.1,4.9c0.2,0.8,0.4,1.7,0.6,2.7c0.2,1,0.3,1.8,0.4,2.3c0.1-0.7,0.3-1.8,0.6-3.4l1.4-6.5h3.3
			L110.8,68.8z"/>
		<path class="st0" d="M121,68.8l-0.6-2.4h-4.2l-0.7,2.4h-3.8l4.2-12.9h4.6l4.2,12.9H121z M119.6,63.5l-0.6-2.1
			c-0.1-0.5-0.3-1.1-0.5-1.8c-0.2-0.7-0.3-1.3-0.4-1.6c-0.1,0.3-0.2,0.8-0.3,1.5c-0.2,0.7-0.5,2-1,4.1H119.6z"/>
		<path class="st0" d="M128.9,64.1v4.7h-3.5V55.9h4.2c3.5,0,5.2,1.3,5.2,3.8c0,1.5-0.7,2.6-2.2,3.5l3.7,5.6h-3.9l-2.7-4.7H128.9z
			 M128.9,61.5h0.7c1.2,0,1.8-0.5,1.8-1.6c0-0.9-0.6-1.3-1.8-1.3h-0.7V61.5z"/>
		<path class="st0" d="M147.8,62.1c0,2.1-0.6,3.8-1.8,5c-1.2,1.2-2.8,1.7-5,1.7h-4.2V55.9h4.4c2.1,0,3.7,0.5,4.8,1.6
			C147.3,58.6,147.8,60.1,147.8,62.1z M144.2,62.2c0-1.2-0.2-2.1-0.7-2.6c-0.5-0.6-1.2-0.9-2.1-0.9h-1v7.2h0.8
			c1.1,0,1.8-0.3,2.3-0.9S144.2,63.5,144.2,62.2z"/>
		<path class="st0" d="M157.1,64.9c0,0.8-0.2,1.5-0.6,2.1s-1,1.1-1.7,1.4s-1.7,0.5-2.7,0.5c-0.9,0-1.6-0.1-2.2-0.2s-1.2-0.3-1.8-0.6
			v-3.1c0.7,0.3,1.4,0.6,2.1,0.8s1.4,0.3,2,0.3c0.5,0,0.9-0.1,1.1-0.3s0.4-0.4,0.4-0.7c0-0.2,0-0.3-0.1-0.5
			c-0.1-0.1-0.3-0.3-0.5-0.4c-0.2-0.1-0.8-0.4-1.7-0.8c-0.8-0.4-1.5-0.8-1.9-1.1s-0.7-0.8-0.9-1.2c-0.2-0.5-0.3-1-0.3-1.6
			c0-1.2,0.4-2.1,1.3-2.8s2-1,3.6-1c1.3,0,2.7,0.3,4.1,0.9l-1.1,2.7c-1.2-0.6-2.2-0.8-3.1-0.8c-0.5,0-0.8,0.1-1,0.2
			s-0.3,0.4-0.3,0.6c0,0.3,0.1,0.5,0.4,0.7s1,0.6,2.1,1.1c1.1,0.5,1.9,1,2.3,1.6C156.9,63.3,157.1,64,157.1,64.9z"/>
	</g>
	<g>
		<g>
			<g>
				<g>
					<path class="st1" d="M19.9,31h-6.8L2.4,2.8h8.8l3.9,10.6c0.3,0.8,0.6,1.6,0.9,2.5c0.3,0.9,0.5,1.8,0.7,2.8h0.1
						c0.2-0.9,0.5-1.9,0.8-2.8c0.3-0.9,0.6-1.7,0.8-2.5l4-10.6h8.4L19.9,31z"/>
				</g>
				<g>
					<path class="st1" d="M59.4,16.8c0,2.2-0.4,4.2-1.2,6c-0.8,1.8-1.9,3.4-3.2,4.7c-1.4,1.3-3,2.3-4.8,3.1
						c-1.9,0.7-3.8,1.1-5.9,1.1c-2.1,0-4.1-0.4-5.9-1.1c-1.9-0.7-3.5-1.7-4.8-3.1c-1.4-1.3-2.5-2.9-3.3-4.7C29.4,21,29,19,29,16.8
						s0.4-4.2,1.2-6C31,8.9,32.1,7.4,33.4,6c1.4-1.3,3-2.3,4.8-3.1c1.9-0.7,3.8-1.1,5.9-1.1c2.1,0,4.1,0.4,5.9,1.1
						C52,3.7,53.6,4.7,55,6c1.4,1.3,2.4,2.9,3.2,4.7C59,12.6,59.4,14.6,59.4,16.8z M50.7,16.8c0-1.1-0.2-2-0.5-2.9
						c-0.3-0.9-0.8-1.6-1.4-2.3c-0.6-0.7-1.3-1.2-2.1-1.5c-0.8-0.3-1.6-0.5-2.5-0.5c-0.9,0-1.7,0.2-2.5,0.5
						c-0.8,0.4-1.5,0.9-2.1,1.5c-0.6,0.7-1,1.4-1.4,2.3c-0.3,0.9-0.5,1.8-0.5,2.9c0,1,0.2,2,0.5,2.8c0.3,0.9,0.8,1.6,1.4,2.3
						c0.6,0.6,1.3,1.1,2.1,1.5c0.8,0.3,1.6,0.5,2.5,0.5c0.9,0,1.7-0.2,2.5-0.5c0.8-0.3,1.5-0.8,2.1-1.5c0.6-0.6,1.1-1.4,1.4-2.3
						C50.5,18.8,50.7,17.8,50.7,16.8z"/>
				</g>
				<g>
					<path class="st1" d="M77.1,28.3c-1.9,4.9-4,8.8-6.4,11.7c-2.4,2.9-5.3,4.7-8.6,5.5l-3.7-5.9c1.1-0.4,2.1-0.8,3-1.3
						c0.9-0.5,1.7-1.2,2.5-2c0.8-0.8,1.5-1.8,2.2-2.9c0.7-1.2,1.4-2.5,2-4.1L57.6,2.8h9l4.1,10.9c0.3,0.8,0.6,1.7,0.9,2.6
						c0.3,0.9,0.5,1.8,0.8,2.9h0.1c0.2-1,0.5-1.9,0.8-2.8c0.3-0.9,0.6-1.7,0.9-2.6l4.2-11h8.5L77.1,28.3z"/>
				</g>
				<g>
					<path class="st1" d="M109,31.6c-2.8-0.2-4.8-1.3-5.9-3.1c-0.9,1.1-2.1,1.9-3.5,2.4c-1.4,0.5-2.8,0.8-4.4,0.8
						c-1.4,0-2.7-0.2-4-0.6c-1.2-0.4-2.3-1-3.2-1.8c-0.9-0.8-1.6-1.8-2.2-2.9c-0.5-1.1-0.8-2.4-0.8-3.9c0-2.6,0.9-4.7,2.7-6.3
						c1.8-1.6,4.1-2.5,6.8-2.8l5.6-0.6v-1c0-0.9-0.3-1.6-1-2.1c-0.7-0.5-1.8-0.8-3.4-0.8c-1.6,0-3.1,0.2-4.6,0.6
						c-1.5,0.4-2.7,0.8-3.6,1.4l-0.7-6.9c1.1-0.6,2.5-1.1,4.2-1.4c1.7-0.4,3.5-0.6,5.2-0.6c3.9,0,7,1,9.3,2.9
						c2.3,1.9,3.4,4.7,3.4,8.3v8c0,1.2,0.3,2.2,0.9,2.9c0.6,0.7,1.4,1.1,2.3,1.3L109,31.6z M100.4,18.5l-3.8,0.4
						c-1.3,0.1-2.3,0.5-2.8,1.3c-0.6,0.7-0.8,1.5-0.8,2.4c0,0.7,0.3,1.4,0.8,1.9c0.6,0.5,1.3,0.8,2.1,0.8c1.1,0,2.1-0.4,3.1-1.2
						c0.9-0.8,1.4-1.8,1.4-3V18.5z"/>
				</g>
				<g>
					<path class="st1" d="M136.9,35.4c0,1.4-0.3,2.8-1,4c-0.6,1.2-1.5,2.3-2.7,3.2c-1.2,0.9-2.6,1.6-4.2,2.1
						c-1.6,0.5-3.5,0.8-5.5,0.8c-2,0-3.9-0.3-5.6-0.8c-1.7-0.6-3.1-1.3-4.3-2.3c-1.2-0.9-2.1-2.1-2.7-3.4c-0.7-1.3-1-2.7-1-4.2
						c0-2,0.5-3.7,1.5-5.1c1-1.4,2.3-2.3,3.9-2.8l-3.2-3.2c0.1-0.9,0.5-1.8,1.2-2.5c0.7-0.7,1.3-1.3,2-1.7c-1.1-0.7-2-1.7-2.7-3
						c-0.8-1.3-1.1-2.7-1.1-4.3c0-1.5,0.3-2.9,0.8-4.2c0.5-1.3,1.3-2.4,2.3-3.3c1-0.9,2.2-1.6,3.6-2.2c1.4-0.5,3-0.8,4.8-0.8
						c0.8,0,1.6,0.1,2.2,0.2c0.7,0.1,1.3,0.2,1.9,0.4c0.6,0.2,1.3,0.3,1.9,0.4c0.7,0.1,1.4,0.1,2.1,0.1c1,0,1.9-0.1,2.7-0.3
						c0.8-0.2,1.5-0.4,2.2-0.8l0.6,7.1c-0.2,0.2-0.6,0.4-1.1,0.5c-0.6,0.1-1.1,0.2-1.6,0.1c0.3,0.6,0.5,1.4,0.5,2.4
						c0,1.4-0.2,2.6-0.7,3.7c-0.5,1.1-1.1,2.1-1.9,3c-0.8,0.9-1.8,1.6-2.9,2.1c-1.1,0.5-2.3,0.9-3.7,1c-0.6,0-1,0.1-1.4,0.3
						c-0.4,0.2-0.6,0.4-0.6,0.8c0,0.4,0.2,0.7,0.7,0.9l4.5,1.5c2.7,0.9,4.8,2.2,6.3,3.8C136.2,30.7,136.9,32.8,136.9,35.4z
						 M128.8,35.5c0-0.7-0.3-1.4-0.8-2.1c-0.5-0.6-1.3-1.1-2.3-1.4l-3.7-1c-1.2,0.1-2.2,0.5-3,1.2c-0.8,0.7-1.2,1.7-1.2,2.8
						c0,1.1,0.5,2,1.4,2.8c0.9,0.8,2.3,1.2,4.2,1.2c1.8,0,3.1-0.3,4-1C128.3,37.2,128.8,36.4,128.8,35.5z M126.9,11.9
						c0-1-0.4-1.9-1.1-2.6c-0.7-0.7-1.7-1.1-2.8-1.1c-1.1,0-2,0.4-2.8,1.1c-0.8,0.7-1.1,1.6-1.1,2.6c0,1,0.4,1.9,1.1,2.6
						c0.8,0.7,1.7,1.1,2.8,1.1c1.1,0,2-0.4,2.8-1.1C126.5,13.8,126.9,12.9,126.9,11.9z"/>
				</g>
				<g>
					<path class="st1" d="M162.9,13c0,0.9-0.1,1.9-0.3,2.8l-3.6,3.6h-14c0.2,0.6,0.5,1.2,0.9,1.9c0.4,0.6,1,1.2,1.6,1.7
						c0.7,0.5,1.5,0.9,2.4,1.2c0.9,0.3,2,0.5,3.3,0.5c1.6,0,3.1-0.2,4.4-0.6c1.3-0.4,2.5-0.9,3.7-1.6l-0.8,7.5
						c-0.9,0.5-2.1,0.8-3.5,1.1c-1.4,0.3-3,0.5-4.8,0.5c-2.3,0-4.4-0.3-6.4-1c-2-0.7-3.7-1.7-5.2-3c-1.5-1.3-2.6-2.9-3.5-4.8
						c-0.8-1.9-1.3-3.9-1.3-6.2c0-2.3,0.4-4.3,1.2-6.1c0.8-1.8,1.8-3.4,3.2-4.6c1.3-1.3,2.9-2.3,4.6-2.9c1.7-0.7,3.6-1,5.6-1
						c1.9,0,3.7,0.3,5.2,0.9c1.6,0.6,2.9,1.4,4,2.5c1.1,1,1.9,2.2,2.5,3.5C162.6,10.2,162.9,11.6,162.9,13z M154.6,13
						c0-1.1-0.4-2.1-1.1-2.9c-0.8-0.8-1.8-1.3-3.1-1.3c-1.4,0-2.6,0.4-3.6,1.3c-1,0.9-1.7,2-2.1,3.5h9.9
						C154.6,13.4,154.6,13.2,154.6,13z"/>
				</g>
				<g>
					<path class="st1" d="M182.3,10.1h-0.7c-1.2,0-2.3,0.2-3.5,0.6c-1.1,0.4-2.1,0.9-3,1.7c-0.9,0.8-1.6,1.8-2.1,3
						c-0.5,1.2-0.8,2.7-0.8,4.4v11.1h-9v-28h8.3l0.2,4.4c0.9-1.8,2.1-3,3.8-3.8c1.7-0.7,3.7-1.1,6-1.1L182.3,10.1z"/>
				</g>
			</g>
			<g>
				<g>
					<path class="st0" d="M190.3,26.5c0,0.4-0.2,0.9-0.6,1.5c-0.4,0.6-0.8,1.1-1.4,1.7c-0.5,0.5-1.1,1-1.7,1.4
						c-0.6,0.4-1.1,0.6-1.5,0.6s-0.9-0.2-1.5-0.6c-0.6-0.4-1.2-0.8-1.7-1.4c-0.5-0.5-1-1.1-1.4-1.7c-0.4-0.6-0.6-1.1-0.6-1.5
						s0.2-0.9,0.6-1.5c0.4-0.6,0.8-1.1,1.4-1.7c0.5-0.5,1.1-1,1.7-1.4c0.6-0.4,1.1-0.6,1.5-0.6s0.9,0.2,1.5,0.6
						c0.6,0.4,1.2,0.8,1.7,1.4c0.5,0.5,1,1.1,1.4,1.7C190.2,25.6,190.3,26.1,190.3,26.5z"/>
				</g>
			</g>
		</g>
		<g>
			<path class="st1" d="M143.2,43.8v-6.3h0.7v6.3H143.2z"/>
			<path class="st1" d="M151.5,43.9l-3.1-3.6c-0.3-0.3-0.5-0.6-0.8-0.9c-0.3-0.3-0.5-0.6-0.7-0.9l0,0c0,0.3,0,0.6,0,0.9s0,0.6,0,0.9
				v3.5h-0.7v-6.3h0.5l2.9,3.4c0.2,0.3,0.5,0.5,0.7,0.8c0.3,0.3,0.5,0.6,0.7,0.9l0,0c0-0.3,0-0.6,0-0.8s0-0.6,0-0.8v-3.4h0.7v6.5
				H151.5z"/>
			<path class="st1" d="M156,38.1v5.7h-0.7v-5.7h-2.2v-0.6h5v0.6H156z"/>
			<path class="st1" d="M159.7,43.8v-6.3h3.3v0.6h-2.6v2.3h2.2v0.6h-2.2v2.3h3v0.6H159.7z"/>
			<path class="st1" d="M168.8,43.8l-2.1-2.9h-1.1v2.9h-0.7v-6.3h1.8c0.2,0,0.5,0,0.7,0.1c0.2,0.1,0.4,0.2,0.6,0.3
				c0.2,0.1,0.3,0.3,0.4,0.5c0.1,0.2,0.2,0.5,0.2,0.7c0,0.4-0.1,0.8-0.4,1c-0.2,0.3-0.5,0.5-0.9,0.6l2.2,3H168.8z M167.9,39.2
				c0-0.2,0-0.3-0.1-0.5c-0.1-0.1-0.2-0.3-0.3-0.4c-0.1-0.1-0.2-0.2-0.4-0.2c-0.2-0.1-0.3-0.1-0.5-0.1h-1v2.3h1.1
				c0.2,0,0.3,0,0.5-0.1c0.2-0.1,0.3-0.1,0.4-0.2c0.1-0.1,0.2-0.2,0.3-0.4C167.9,39.5,167.9,39.4,167.9,39.2z"/>
			<path class="st1" d="M176.2,43.9l-3.1-3.6c-0.3-0.3-0.5-0.6-0.8-0.9c-0.3-0.3-0.5-0.6-0.7-0.9l0,0c0,0.3,0,0.6,0,0.9s0,0.6,0,0.9
				v3.5h-0.7v-6.3h0.5l2.9,3.4c0.2,0.3,0.5,0.5,0.7,0.8c0.3,0.3,0.5,0.6,0.7,0.9l0,0c0-0.3,0-0.6,0-0.8s0-0.6,0-0.8v-3.4h0.7v6.5
				H176.2z"/>
			<path class="st1" d="M178.5,43.8v-6.3h3.3v0.6h-2.6v2.3h2.2v0.6h-2.2v2.3h3v0.6H178.5z"/>
			<path class="st1" d="M186,38.1v5.7h-0.7v-5.7h-2.2v-0.6h5v0.6H186z"/>
		</g>
	</g>
</g>
</svg>
