<?xml version="1.0" encoding="utf-8"?>
<!-- Generator: Adobe Illustrator 15.0.0, SVG Export Plug-In . SVG Version: 6.00 Build 0)  -->
<!DOCTYPE svg PUBLIC "-//W3C//DTD SVG 1.1//EN" "http://www.w3.org/Graphics/SVG/1.1/DTD/svg11.dtd">
<svg version="1.1" xmlns="http://www.w3.org/2000/svg" xmlns:xlink="http://www.w3.org/1999/xlink" x="0px" y="0px" width="117.169px"
	 height="120.135px" viewBox="0 0 117.169 120.135" enable-background="new 0 0 117.169 120.135" xml:space="preserve">
		<g>
			<circle fill="#66CCFF" cx="58.572" cy="59.937" r="56.718"/>
			<path fill="#FFFFFF" d="M63.744,28.75c0,0,7.934,5.852,6.347,18.371c-1.587,12.519-3.702,15.691,4.408,22.744
				c8.111,7.054,7.197,21.512-8.567,18.338c3.278,4.055,9.803,8.208,9.803,8.208l19.042-11.382l10.049-12.33
				c0,0,4.938-25.226-13.752-43.033C77.314,18.764,74.499,22.71,74.499,22.71L63.744,28.75z"/>
			<path opacity="0.3" fill="#E0D9D9" d="M69.474,26.034c0,0,8.198-0.567,8.992,14.904c0.793,15.47-3.57,17.983,4.231,27.107
				C90.5,77.17,90.5,77.17,90.5,77.17s-4.364-14.551,0-21.821C94.863,48.078,91.425,23.03,69.474,26.034z"/>
			<path fill="#FFCC33" d="M24.602,64.753c0,0,4.233,5.642,7.759-1.234c3.526-6.877,3.172-15.869,9.697-15.34
				c6.523,0.529,9.168-5.466,9.168-5.466l-5.642-5.182c0,0-9.874-9.798,10.932-8.919c20.805,0.878,20.981-3.139,28.739,8.919
				c0.881-3.81-1.763-10.51,5.818-7.865c-3.351-3.879-4.762-13.754-25.214-15.163C45.407,13.092,10.691,16.505,24.602,64.753z"/>
			<path fill="#CC9933" d="M70.223,17.809c7.014,0.483,11.787,1.963,15.169,3.854c-3.274-3.327-8.761-6.417-19.533-7.159
				c-20.452-1.412-55.168,2.002-41.257,50.25c0,0,1.809,2.409,4.047,2.158C15.621,19.765,49.935,16.41,70.223,17.809z"/>
			<path fill="#3366CC" d="M31.29,83.454c0,0-2.281-8.286,9.532-3.879c11.813,4.407,20.278,9.168,23.627,3.879
				c2.116,2.998,8.64,13.929,16.927,5.995c8.286-7.935,14.634-7.404,18.865-16.75c2.115,0.176,4.584,0,4.584,0
				s-6.877,29.798-33.853,32.795c-12.917,0.705-15.222-3.938-15.222-3.938s-5.781-3.524-10.354,1.176
				C40.822,107.433,31.29,83.454,31.29,83.454z"/>
			<path fill="#264D99" d="M70.972,105.494c13.645-1.516,22.141-9.888,27.213-17.793c-3.872,3.696-8.788,5.063-14.694,10.719
				c-8.286,7.935-14.811-2.997-16.926-5.995c-3.35,5.29-11.813,0.529-23.627-3.878c-6.06-2.261-8.406-1.181-9.26,0.407
				c3.13,6.769,8.585,16.997,11.718,13.778c4.573-4.7,10.354-1.176,10.354-1.176S58.055,106.199,70.972,105.494z"/>
			<path fill="#BF4D00" d="M22.45,27.985c0,0,11.674-9.057,7.442,10.583s-7.582,29.69,4.231,43.971
				c11.813,14.282,20.187,17.828,23.714,17.477c-4.761,1.587-6.789,0.189-7.67,2.997c-0.881,2.807-4.596,10.574-16.056,2.443
				C14.691,92.688-7.208,50.124,22.45,27.985z"/>
			<path fill="#CC6633" d="M34.124,82.539c-11.813-14.281-8.463-24.331-4.231-43.971c0.686-3.182,0.973-5.477,0.981-7.107
				c-0.062,0.076-0.1,0.124-0.1,0.124c-20.409,22.016-21.07,43.571,8.992,67.021c4.061,2.88,7.354,4.475,9.972,5.231
				c0.189-0.262,0.34-0.536,0.431-0.824c0.512-1.631,3.938-1.546,7.653-1.499c0.61-0.74,2.081-0.982,3.923-1.05
				C55.465,99.017,43.516,93.896,34.124,82.539z"/>
			<path fill="#FFE085" d="M72.78,26.625c-11.769-1.587-16-2.248-18.381-3.438c-2.38-1.19-24.067-1.329-14.149,14.344
				c6.612,7.739,4.1,7.871,1.587,8.003c-2.512,0.132-7.78-3.251-7.725,13.643c1.91-5.786,2.743-11.419,7.946-10.998
				c6.523,0.529,9.168-5.466,9.168-5.466l-5.642-5.182c0,0-9.874-9.798,10.932-8.919c20.805,0.878,20.981-3.139,28.739,8.919
				C85.254,37.531,84.549,28.211,72.78,26.625z"/>
		</g>
</svg>
