<?xml version="1.0" encoding="utf-8"?>
<!-- Generator: Adobe Illustrator 15.0.0, SVG Export Plug-In . SVG Version: 6.00 Build 0)  -->
<!DOCTYPE svg PUBLIC "-//W3C//DTD SVG 1.1//EN" "http://www.w3.org/Graphics/SVG/1.1/DTD/svg11.dtd">
<svg version="1.1" xmlns="http://www.w3.org/2000/svg" xmlns:xlink="http://www.w3.org/1999/xlink" x="0px" y="0px" width="196.5px" height="216px"
	 viewBox="0 0 196.5 216" enable-background="new 0 0 196.5 216" xml:space="preserve">
		<g>
			<path fill="#E2E2E2" d="M187.805,6.5L30.476,4.057L26.809,211h162.996L187.805,6.5z M110.139,154.748
				c-25.244,0-45.708-20.465-45.708-45.709c0-25.243,20.464-45.707,45.708-45.707c25.243,0,45.707,20.464,45.707,45.707
				C155.846,134.283,135.382,154.748,110.139,154.748z"/>
			<polyline fill="#999999" points="30.476,4.057 8.471,10.333 6.471,187.334 26.809,211 30.476,4.057 			"/>
			<path fill="#EEEEEE" d="M110.139,50.54c-32.309,0-58.5,26.191-58.5,58.499c0,32.311,26.191,58.502,58.5,58.502
				c32.31,0,58.5-26.191,58.5-58.502C168.639,76.731,142.448,50.54,110.139,50.54z M110.139,154.748
				c-25.244,0-45.708-20.465-45.708-45.709c0-25.243,20.464-45.707,45.708-45.707c25.243,0,45.707,20.464,45.707,45.707
				C155.846,134.283,135.382,154.748,110.139,154.748z"/>
			<path opacity="0.2" d="M111.118,78.583c21.629,0,39.736,15.028,44.481,35.208c0.161-1.562,0.246-3.146,0.246-4.752
				c0-25.243-20.464-45.707-45.707-45.707c-25.244,0-45.708,20.464-45.708,45.707c0,3.614,0.433,7.126,1.226,10.498
				C68.033,96.528,87.479,78.583,111.118,78.583z"/>
			<path fill="#FFFFFF" d="M110.139,152.498c-24.699,0-44.81-19.594-45.667-44.084c-0.019,0.54-0.041,1.08-0.041,1.625
				c0,25.244,20.464,45.709,45.708,45.709c25.243,0,45.707-20.465,45.707-45.709c0-0.545-0.022-1.085-0.041-1.625
				C154.947,132.904,134.837,152.498,110.139,152.498z"/>
			<path fill="#FFFFFF" d="M110.139,52.707c31.946,0,57.893,25.61,58.473,57.416c0.007-0.362,0.027-0.721,0.027-1.084
				c0-32.308-26.19-58.499-58.5-58.499c-32.309,0-58.5,26.191-58.5,58.499c0,0.363,0.021,0.722,0.027,1.084
				C52.246,78.317,78.193,52.707,110.139,52.707z"/>
			<path fill="#808080" d="M175.889,26.917c0,5.385-3.451,11.458-8.836,11.458s-9.664-8.782-9.664-14.167s4.279-5.333,9.664-5.333
				S175.889,21.532,175.889,26.917z"/>
			<circle fill="#C9C8C8" cx="167.139" cy="23.75" r="9.75"/>
			<circle fill="#EEEEEE" cx="168.639" cy="22.917" r="9.75"/>
			<path fill="#808080" d="M84.869,19.724c0,2.421-1.552,5.151-3.973,5.151s-4.345-3.948-4.345-6.369s1.924-2.398,4.345-2.398
				S84.869,17.303,84.869,19.724z"/>
			<circle fill="#C9C8C8" cx="80.935" cy="18.3" r="4.384"/>
			<circle fill="#EEEEEE" cx="81.61" cy="17.925" r="4.384"/>
			<path fill="#808080" d="M68.027,19.39c0,2.421-1.552,5.151-3.973,5.151s-4.345-3.948-4.345-6.369s1.924-2.398,4.345-2.398
				S68.027,16.969,68.027,19.39z"/>
			<circle fill="#C9C8C8" cx="64.094" cy="17.966" r="4.384"/>
			<circle fill="#EEEEEE" cx="64.768" cy="17.591" r="4.384"/>
			<path fill="#808080" d="M50.515,18.815c0,2.421-1.552,5.151-3.973,5.151s-4.345-3.948-4.345-6.369s1.924-2.398,4.345-2.398
				S50.515,16.395,50.515,18.815z"/>
			<circle fill="#C9C8C8" cx="46.581" cy="17.392" r="4.384"/>
			<circle fill="#EEEEEE" cx="47.255" cy="17.017" r="4.384"/>
			<rect x="91.805" y="14" fill="#6699CC" width="40.25" height="16.75"/>
			<polygon fill="#4D7399" points="130.93,15.375 91.805,15.375 91.805,14 132.055,14 132.055,30.75 130.93,30.75 			"/>
			<polygon fill="#FFFFFF" points="91.847,30.75 130.972,30.75 130.972,30.75 91.263,31.208 91.805,15.375 91.847,15.374 			"/>
			<rect x="94.472" y="17.917" opacity="0.3" fill="#4D7399" width="15.667" height="2.583"/>
			<rect x="94.472" y="22.917" opacity="0.3" fill="#4D7399" width="15.667" height="2.583"/>
			<rect x="113.139" y="17.917" opacity="0.3" fill="#4D7399" width="8.749" height="2.583"/>
			<rect x="113.139" y="22.917" opacity="0.3" fill="#4D7399" width="8.749" height="2.583"/>
			<path fill="#EEEEEE" d="M150.398,83.003v52.075C150.398,135.078,171.535,111.124,150.398,83.003"/>
			<path fill="#FFFFFF" d="M153.231,83.003v52.075C153.231,135.078,174.368,111.124,153.231,83.003"/>
			<path fill="#FFFFFF" d="M8.471,10.333"/>
			<path fill="#C9C8C8" d="M8.471,10.333"/>
			<path fill="#808080" d="M110.139,167.541c-32.309,0-58.5-26.191-58.5-58.502c0,32.311,26.191,71.795,58.5,71.795
				c32.31,0,58.5-39.484,58.5-71.795C168.639,141.35,142.448,167.541,110.139,167.541z"/>
		</g>
</svg>
